<?xml version="1.0" encoding="UTF-8" standalone="no"?>
<svg
   xmlns:dc="http://purl.org/dc/elements/1.1/"
   xmlns:cc="http://creativecommons.org/ns#"
   xmlns:rdf="http://www.w3.org/1999/02/22-rdf-syntax-ns#"
   xmlns:svg="http://www.w3.org/2000/svg"
   xmlns="http://www.w3.org/2000/svg"
   xmlns:xlink="http://www.w3.org/1999/xlink"
   xmlns:sodipodi="http://sodipodi.sourceforge.net/DTD/sodipodi-0.dtd"
   xmlns:inkscape="http://www.inkscape.org/namespaces/inkscape"
   viewBox="0 0 996 996"
   height="996"
   width="996"
   id="svg4027"
   version="1.1"
   sodipodi:docname="farkett_logo2.svg"
   inkscape:version="0.92.3 (d244b95, 2018-08-02)">
  <sodipodi:namedview
     pagecolor="#ffffff"
     bordercolor="#666666"
     borderopacity="1"
     objecttolerance="10"
     gridtolerance="10"
     guidetolerance="10"
     inkscape:pageopacity="0"
     inkscape:pageshadow="2"
     inkscape:window-width="1299"
     inkscape:window-height="713"
     id="namedview132"
     showgrid="false"
     inkscape:zoom="0.52911647"
     inkscape:cx="498"
     inkscape:cy="498"
     inkscape:window-x="0"
     inkscape:window-y="27"
     inkscape:window-maximized="1"
     inkscape:current-layer="svg4027" />
  <metadata
     id="metadata4033">
    <rdf:RDF>
      <cc:Work
         rdf:about="">
        <dc:format>image/svg+xml</dc:format>
        <dc:type
           rdf:resource="http://purl.org/dc/dcmitype/StillImage" />
        <dc:title />
      </cc:Work>
    </rdf:RDF>
  </metadata>
  <defs
     id="defs4031">
    <clipPath
       clipPathUnits="userSpaceOnUse"
       id="clipPath140">
      <use
         x="0"
         y="0"
         xlink:href="#g136"
         id="use142"
         width="100%"
         height="100%" />
    </clipPath>
  </defs>
  <path
     id="path4103"
     d="m 157.86428,664.02635 c -8.37911,-2.88022 -15.2194,-9.70266 -17.32394,-17.27875 -2.20133,-7.92452 -1.5893,-22.78772 1.18508,-28.78012 5.95587,-12.86404 17.4557,-17.99495 42.64991,-19.02923 l 16.51105,-0.67781 -0.78744,-9.39256 c -0.64684,-7.71552 -1.40105,-10.00331 -4.22406,-12.81314 l -3.43663,-3.42058 -23.28699,0.20862 -23.28698,0.20863 v -9.11877 c 0,-10.45703 -0.90211,-9.74614 15.09648,-11.89658 34.8646,-4.68628 56.73472,2.69224 62.88765,21.21698 1.71089,5.15102 1.99517,13.30077 1.70163,48.78263 l -0.35243,42.59848 -8.62553,0.40454 c -11.26046,0.52812 -14.7078,-0.38738 -14.7078,-3.90593 0,-2.15343 -0.52844,-2.55149 -2.33334,-1.75763 -17.0573,7.50244 -29.37252,8.87718 -41.66666,4.65122 z m 37.66666,-21.93512 5,-2.15954 v -11.9821 -11.98211 h -10.63968 c -11.57652,0 -20.54941,2.66013 -22.73254,6.73935 -1.5088,2.81921 -1.70783,15.9229 -0.27403,18.04126 3.39972,5.02291 18.48841,5.73036 28.64625,1.34314 z m 255,22.66422 c -14.99702,-3.71606 -25.97633,-13.19438 -31.57516,-27.25852 -2.66905,-6.7046 -2.99742,-9.86652 -2.99742,-28.86277 0,-18.99392 0.32857,-22.15868 2.99629,-28.85976 8.24063,-20.69978 24.52403,-30.35275 48.50349,-28.75339 22.06699,1.47179 36.52511,13.83711 41.66168,35.63119 2.04711,8.68568 2.77955,25.93509 1.26847,29.87289 -0.70859,1.84656 -5.02317,2.10906 -34.66667,2.10906 h -33.85734 v 3.71748 c 0,6.29048 5.46721,15.29837 11.33333,18.67302 5.10801,2.93855 6.34724,3.05144 29.33333,2.67216 l 24,-0.396 0.34479,8 c 0.18964,4.4 -0.17656,8.79982 -0.81377,9.77738 -2.88587,4.42724 -42.04042,7.02005 -55.53102,3.67726 z m 33.51026,-71.00549 c -1.08136,-7.88942 -4.41054,-13.5945 -10.24902,-17.56336 -3.77114,-2.56355 -5.85901,-3.0218 -11.64986,-2.55692 -11.35048,0.91118 -18.0954,7.76926 -19.7883,20.12028 l -0.85221,6.21753 h 21.6958 21.6958 z m 74.24018,71.43544 c -7.39976,-1.77836 -13.03717,-8.25575 -14.95074,-17.17843 -0.85228,-3.97406 -1.46636,-21.28314 -1.46636,-41.33251 v -34.49509 l -3.66667,-0.70124 c -2.01667,-0.38568 -6.36667,-1.10119 -9.66667,-1.59003 -3.3,-0.48882 -6.75,-1.49441 -7.66666,-2.23462 -2.12632,-1.71702 -2.17488,-11.97778 -0.0667,-14.08599 0.95221,-0.95221 5.54075,-1.6 11.33333,-1.6 h 9.73334 l 0.0204,-8.33333 c 0.0107,-4.58334 0.50212,-9.09219 1.09085,-10.01968 1.14683,-1.80668 22.47004,-6.06314 24.39968,-4.87055 0.63564,0.39285 1.15572,5.77887 1.15572,11.96892 v 11.25464 h 9.95309 c 11.22915,0 12.71358,1.16759 12.71358,10 0,8.83241 -1.48443,10 -12.71358,10 h -9.95308 v 35.17008 c 0,27.11483 0.39446,35.49743 1.72226,36.5994 0.94724,0.78614 5.89724,1.6096 11,1.82992 l 9.27774,0.40059 0.4021,8.53124 c 0.22114,4.69219 -0.15238,9.08571 -0.83006,9.76339 -1.80513,1.80513 -25.31406,2.48724 -31.8216,0.92329 z M 36.577854,662.7218 c -1.93861,-3.62233 -1.84874,-107.17887 0.1028,-118.38512 2.83372,-16.27248 12.1942,-25.21702 29.85035,-28.52394 8.39012,-1.57144 42.656406,-0.77265 51.333326,1.19663 l 4.66667,1.05913 0.39094,9.5763 c 0.36916,9.04298 0.22066,9.61472 -2.66666,10.26605 -1.6817,0.37936 -13.6925,0.84729 -26.690666,1.03987 -30.5476,0.45254 -29.51264,-0.31595 -30.14528,22.38348 l -0.44505,15.96662 h 28.06476 c 31.888496,0 30.825236,-0.39092 30.825236,11.33334 0,11.7203 1.04872,11.33333 -30.713576,11.33333 h -27.95309 v 31.06666 c 0,22.38518 -0.44712,31.51378 -1.6,32.66666 -0.98632,0.98632 -5.82661,1.6 -12.61976,1.6 -9.53029,0 -11.20631,-0.34858 -12.4,-2.57901 z m 210.953086,1.69597 c -1.29558,-0.52278 -1.66666,-12.93598 -1.66666,-55.75207 0,-62.71093 -1.39726,-56.69821 13.17572,-56.69821 9.20304,0 12.15761,1.33812 12.15761,5.50613 0,2.04816 0.63875,1.94915 5.70992,-0.88518 6.79663,-3.79872 18.47595,-6.53136 23.02992,-5.38839 3.09361,0.77644 3.26016,1.32651 3.26016,10.76744 0,9.2664 -0.20588,9.98681 -3,10.49729 -1.65,0.30146 -6.33645,1.15739 -10.41433,1.90208 -4.0779,0.7447 -9.6279,2.27886 -12.33334,3.40927 l -4.919,2.05529 v 40.15567 c 0,25.13055 -0.51645,41.1207 -1.38024,42.73471 -1.18993,2.22341 -2.79857,2.56449 -11.66666,2.47375 -5.65754,-0.0579 -11.03643,-0.4079 -11.9531,-0.77778 z m 69.33334,0 c -1.30539,-0.52673 -1.66667,-16.80265 -1.66667,-75.0854 0,-66.62485 0.22073,-74.49761 2.10905,-75.22223 4.03427,-1.54809 21.68476,-0.88474 22.81226,0.85735 0.59328,0.91667 1.37869,20.13919 1.74536,42.71672 l 0.66666,41.05004 14.57835,-19.71671 c 21.63419,-29.25949 18.83591,-27.05005 34.25908,-27.05005 7.15285,0 13.35301,0.56279 13.77812,1.25063 0.42511,0.68784 -7.78948,11.82838 -18.25464,24.75676 -10.46516,12.92838 -19.76689,24.5393 -20.67052,25.80205 -1.41956,1.98373 1.17664,6.13749 19.09481,30.55047 11.40576,15.54003 20.35967,28.86632 19.89759,29.614 -0.48319,0.78181 -6.69655,1.35941 -14.62335,1.35941 h -13.7832 l -3.80478,-4.3981 c -2.09263,-2.41898 -9.80479,-13.16875 -17.13812,-23.8884 l -13.33334,-19.49028 -0.66666,22.22173 c -0.36667,12.22195 -1.15208,22.97172 -1.74536,23.88839 -1.06778,1.6498 -19.56343,2.27306 -23.25464,0.78362 z"
     style="fill:#83c470;stroke-width:1.33333337;fill-opacity:0" />
  <g
     id="g138"
     clip-path="url(#clipPath140)">
    <g
       inkscape:label="Clip"
       id="g136">
      <path
         style="fill:#f6b442;fill-opacity:1;stroke-width:1.33333337"
         d="m 750.55011,604.93733 c -8.497,-3.63852 -10.7438,-14.65225 -4.303,-21.09301 8.0965,-8.09652 21.5757,-2.4928 21.5757,8.96969 0,8.78012 -9.5033,15.45028 -17.2727,12.12332 z m 57.3333,0 c -8.4969,-3.63852 -10.7438,-14.65225 -4.303,-21.09301 8.0965,-8.09652 21.5758,-2.4928 21.5758,8.96969 0,8.78012 -9.5034,15.45028 -17.2728,12.12332 z m -82.9162,-32.32801 c -7.3898,-1.65779 -13.022,-8.09557 -14.9508,-17.08915 -0.8522,-3.97406 -1.4663,-21.28314 -1.4663,-41.33252 v -34.49509 l -3.6667,-0.70124 c -2.0166,-0.38568 -6.3666,-1.10119 -9.6666,-1.59003 -3.3,-0.48882 -6.75,-1.49441 -7.6667,-2.23462 -2.1263,-1.71702 -2.1749,-11.97778 -0.067,-14.08599 0.9522,-0.95221 5.5407,-1.6 11.3333,-1.6 h 9.7333 l 0.02,-8.33333 c 0.011,-4.58334 0.5022,-9.09219 1.0909,-10.01968 1.1468,-1.80668 22.47,-6.06314 24.3997,-4.87055 0.6356,0.39285 1.1557,5.77887 1.1557,11.96892 v 11.25464 h 52.4172 52.4172 l 3.531,3.68556 c 1.9421,2.02707 4.4648,6.33209 5.606,9.56673 2.0052,5.68324 1.9152,6.5801 -2.6741,26.64778 -5.6843,24.85621 -6.3521,26.69509 -11.4802,31.60996 l -3.9892,3.8233 -47.9139,0.38138 -47.9139,0.38138 v 7.12203 c 0,4.31423 0.702,7.70465 1.7806,8.59987 1.2022,0.99774 15.8208,1.5922 45,1.82992 l 43.2194,0.35209 v 9.31072 9.31071 l -5.3334,0.94578 c -7.8645,1.39464 -88.4033,1.02251 -94.9162,-0.43857 z m 35.5829,-63.79531 v -6.66666 h -12.6667 -12.6666 v 6.66666 6.66667 h 12.6666 12.6667 z m 37.3333,0 v -6.66666 h -14 -14 v 6.66666 6.66667 h 14 14 z m 27.8417,0.74291 c 0.8204,-3.25807 1.4917,-6.25807 1.4917,-6.66667 0,-0.4086 -4.5,-0.7429 -10,-0.7429 h -10 v 6.66666 6.66667 h 8.5083 8.5084 z m -65.175,-23.40957 v -6.66667 h -12.6667 -12.6666 v 6.66667 6.66666 h 12.6666 12.6667 z m 37.3333,0 v -6.66667 h -14 -14 v 6.66667 6.66666 h 14 14 z m 33.2632,1.66666 c 2.3593,-8.49534 2.5783,-8.33333 -11.2632,-8.33333 h -12.6666 v 6.66667 6.66666 h 11.2706 11.2707 z"
         id="path4037" />
      <path
         style="fill:#ffffff;fill-opacity:1;stroke-width:1.33333337"
         d="m 249.19762,571.45027 c -8.37911,-2.88022 -15.2194,-9.70266 -17.32394,-17.27875 -2.20133,-7.92452 -1.5893,-22.78772 1.18508,-28.78012 5.95587,-12.86405 17.4557,-17.99496 42.64991,-19.02924 l 16.51105,-0.67781 -0.78744,-9.39256 c -0.64684,-7.71552 -1.40105,-10.00331 -4.22406,-12.81314 l -3.43663,-3.42058 -23.28699,0.20862 -23.28698,0.20863 v -9.11877 c 0,-10.45703 -0.90211,-9.74614 15.09648,-11.89658 34.8646,-4.68628 56.73472,2.69224 62.88765,21.21698 1.71089,5.15102 1.99517,13.30077 1.70163,48.78264 l -0.35243,42.59848 -8.62553,0.40454 c -11.26046,0.52812 -14.7078,-0.38738 -14.7078,-3.90593 0,-2.15343 -0.52844,-2.55149 -2.33334,-1.75763 -17.0573,7.50244 -29.37252,8.87718 -41.66666,4.65122 z m 37.66666,-21.93512 5,-2.15954 V 535.37351 523.3914 H 281.2246 c -11.57652,0 -20.54941,2.66013 -22.73254,6.73935 -1.5088,2.81921 -1.70783,15.9229 -0.27403,18.04126 3.39972,5.02291 18.48841,5.73036 28.64625,1.34314 z m 255,22.66422 c -14.99702,-3.71606 -25.97633,-13.19438 -31.57516,-27.25852 -2.66905,-6.7046 -2.99742,-9.86652 -2.99742,-28.86278 0,-18.99392 0.32857,-22.15868 2.99629,-28.85976 8.24063,-20.69978 24.52403,-30.35275 48.50349,-28.75339 22.06699,1.47179 36.52511,13.83711 41.66168,35.63119 2.04711,8.68568 2.77955,25.93509 1.26847,29.8729 -0.70859,1.84656 -5.02317,2.10906 -34.66667,2.10906 h -33.85734 v 3.71748 c 0,6.29048 5.46721,15.29837 11.33333,18.67302 5.10801,2.93855 6.34724,3.05144 29.33333,2.67216 l 24,-0.396 0.34479,8 c 0.18964,4.4 -0.17656,8.79982 -0.81377,9.77738 -2.88587,4.42724 -42.04042,7.02005 -55.53102,3.67726 z m 33.51026,-71.0055 c -1.08136,-7.88942 -4.41054,-13.5945 -10.24902,-17.56336 -3.77114,-2.56355 -5.85901,-3.0218 -11.64986,-2.55692 -11.35048,0.91118 -18.0954,7.76926 -19.7883,20.12028 l -0.85221,6.21753 h 21.6958 21.6958 z m 74.24018,71.43545 c -7.39976,-1.77836 -13.03717,-8.25575 -14.95074,-17.17843 -0.85228,-3.97406 -1.46636,-21.28314 -1.46636,-41.33252 v -34.49509 l -3.66667,-0.70124 c -2.01667,-0.38568 -6.36667,-1.10119 -9.66667,-1.59003 -3.3,-0.48882 -6.75,-1.49441 -7.66666,-2.23462 -2.12632,-1.71702 -2.17488,-11.97778 -0.0667,-14.08599 0.95221,-0.95221 5.54075,-1.6 11.33333,-1.6 h 9.73334 l 0.0204,-8.33333 c 0.0107,-4.58334 0.50212,-9.09219 1.09085,-10.01968 1.14683,-1.80668 22.47004,-6.06314 24.39968,-4.87055 0.63564,0.39285 1.15572,5.77887 1.15572,11.96892 v 11.25464 h 9.95309 c 11.22915,0 12.71358,1.16759 12.71358,10 0,8.83241 -1.48443,10 -12.71358,10 h -9.95308 v 35.17008 c 0,27.11484 0.39446,35.49744 1.72226,36.59941 0.94724,0.78614 5.89724,1.6096 11,1.82992 l 9.27774,0.40059 0.4021,8.53124 c 0.22114,4.69219 -0.15238,9.08571 -0.83006,9.76339 -1.80513,1.80513 -25.31406,2.48724 -31.8216,0.92329 z m -521.70353,-2.4636 c -1.93861,-3.62233 -1.84874,-107.17888 0.1028,-118.38513 2.83372,-16.27248 12.1942,-25.21702 29.85035,-28.52394 8.39012,-1.57144 42.65641,-0.77265 51.33333,1.19663 l 4.66667,1.05913 0.39094,9.5763 c 0.36916,9.04298 0.22066,9.61472 -2.66666,10.26605 -1.6817,0.37936 -13.6925,0.84729 -26.69067,1.03987 -30.5476,0.45254 -29.51264,-0.31595 -30.14528,22.38348 l -0.44505,15.96662 h 28.06476 c 31.8885,0 30.82524,-0.39092 30.82524,11.33334 0,11.7203 1.04872,11.33333 -30.71358,11.33333 h -27.95309 v 31.06667 c 0,22.38518 -0.44712,31.51378 -1.6,32.66666 -0.98632,0.98632 -5.82661,1.6 -12.61976,1.6 -9.53029,0 -11.20631,-0.34858 -12.4,-2.57901 z m 210.95309,1.69597 c -1.29558,-0.52278 -1.66666,-12.93598 -1.66666,-55.75208 0,-62.71093 -1.39726,-56.69821 13.17572,-56.69821 9.20304,0 12.15761,1.33812 12.15761,5.50613 0,2.04816 0.63875,1.94915 5.70992,-0.88518 6.79663,-3.79872 18.47595,-6.53136 23.02992,-5.38839 3.09361,0.77644 3.26016,1.32651 3.26016,10.76744 0,9.2664 -0.20588,9.98681 -3,10.49729 -1.65,0.30146 -6.33645,1.15739 -10.41433,1.90208 -4.0779,0.7447 -9.6279,2.27886 -12.33334,3.40927 l -4.919,2.05529 v 40.15568 c 0,25.13055 -0.51645,41.1207 -1.38024,42.73471 -1.18993,2.22341 -2.79857,2.56449 -11.66666,2.47375 -5.65754,-0.0579 -11.03643,-0.4079 -11.9531,-0.77778 z m 69.33334,0 c -1.30539,-0.52673 -1.66667,-16.80265 -1.66667,-75.08541 0,-66.62485 0.22073,-74.49761 2.10905,-75.22223 4.03427,-1.54809 21.68476,-0.88474 22.81226,0.85735 0.59328,0.91667 1.37869,20.13919 1.74536,42.71672 l 0.66666,41.05004 14.57835,-19.71671 c 21.63419,-29.25949 18.83591,-27.05005 34.25908,-27.05005 7.15285,0 13.35301,0.56279 13.77812,1.25063 0.42511,0.68784 -7.78948,11.82838 -18.25464,24.75676 -10.46516,12.92838 -19.76689,24.5393 -20.67052,25.80205 -1.41956,1.98373 1.17664,6.13749 19.09481,30.55048 11.40576,15.54003 20.35967,28.86632 19.89759,29.614 -0.48319,0.78181 -6.69655,1.35941 -14.62335,1.35941 h -13.7832 l -3.80478,-4.3981 c -2.09263,-2.41898 -9.80479,-13.16875 -17.13812,-23.8884 l -13.33334,-19.49028 -0.66666,22.22173 c -0.36667,12.22195 -1.15208,22.97172 -1.74536,23.88839 -1.06778,1.6498 -19.56343,2.27306 -23.25464,0.78362 z"
         id="path4952" />
    </g>
  </g>
</svg>
